<svg width="318" height="268" viewBox="0 0 318 268" fill="none" xmlns="http://www.w3.org/2000/svg">
<g clip-path="url(#clip0_0_1)">
<path d="M101.27 139.27C94.7401 135.9 87.0501 135.46 79.8001 136.66C75.91 137.3 71.8401 138.47 69.1901 141.39C66.5401 144.32 66.0401 149.46 69.0801 151.98C70.8901 153.48 73.4201 153.7 75.7701 153.68C81.4501 153.61 87.74 152.61 92.28 156.03C94.87 157.98 96.5901 161.22 99.6801 162.18C102.71 163.12 106.12 161.33 107.72 158.6C109.32 155.87 109.38 152.46 108.63 149.38C108.64 149.37 107.85 142.66 101.27 139.27Z" fill="#EBEBEB"/>
<path d="M116.23 110.38C112.24 116.08 104.48 114.19 100.88 110.71C97.2801 107.23 95.76 102.18 94.3801 97.37C91.2201 86.38 88.0301 74.84 90.3801 63.65C91.0801 60.3 92.33 56.97 94.69 54.48C97.04 52 100.66 50.52 103.96 51.39C107.87 52.42 110.31 56.26 112.06 59.9C117.23 70.62 119.96 82.5 120 94.4C120.02 99.97 119.37 105.8 116.23 110.38Z" fill="#EBEBEB"/>
<path d="M127.2 118.57C122.86 113.42 122.04 105.92 123.97 99.47C125.9 93.02 130.26 87.54 135.28 83.06C141.17 77.81 148.09 73.73 155.53 71.11C158.46 70.08 161.55 69.27 164.64 69.56C167.73 69.85 170.84 71.44 172.28 74.18C174.41 78.25 172.37 83.18 170.16 87.2C166.27 94.29 161.81 101.07 156.86 107.46C152.87 112.6 148.31 117.67 142.23 119.99C136.15 122.31 129.84 122.04 126.62 117.83" fill="#EBEBEB"/>
<path d="M116.5 196.42C116.43 196.42 116.3 195.5 116.14 193.83C115.96 191.94 115.73 189.58 115.45 186.76C115.12 183.78 114.69 180.24 113.86 176.39C113.04 172.54 111.75 168.37 110.09 164.15C108.37 159.95 106.28 156.13 103.84 153.07C101.41 150 98.5901 147.78 95.9401 146.5C93.3001 145.19 90.92 144.66 89.28 144.43C87.63 144.26 86.7 144.13 86.7 144.06C86.7 143.99 87.6301 143.97 89.3301 144.02C91.0101 144.13 93.4801 144.56 96.2701 145.83C99.0701 147.07 102.06 149.33 104.61 152.46C107.18 155.58 109.35 159.48 111.09 163.76C112.78 168.06 114.05 172.27 114.83 176.2C115.62 180.12 115.97 183.7 116.21 186.7C116.43 189.7 116.52 192.14 116.56 193.82C116.6 195.48 116.58 196.41 116.5 196.42Z" fill="#E0E0E0"/>
<path d="M116.02 190.97C115.98 190.97 115.96 190.55 115.95 189.77C115.95 188.87 115.96 187.73 115.96 186.33C115.97 183.35 115.97 179.03 115.81 173.69C115.55 163.02 114.63 151.55 112.85 135.36C111.17 120.14 108.92 102.43 106.54 90.92C106.03 88.3 105.52 85.94 105.03 83.88C104.57 81.81 104.17 80.03 103.79 78.59C103.46 77.23 103.2 76.13 102.99 75.25C102.82 74.48 102.74 74.07 102.78 74.06C102.82 74.05 102.96 74.44 103.2 75.19C103.46 76.06 103.79 77.15 104.2 78.48C104.64 79.91 105.1 81.68 105.61 83.74C106.15 85.79 106.72 88.15 107.28 90.76C109.63 101.19 112.13 115.77 113.92 132C115.7 148.22 116.5 162.98 116.57 173.67C116.63 179.02 116.52 183.34 116.38 186.33C116.29 187.73 116.23 188.86 116.17 189.77C116.1 190.56 116.05 190.98 116.02 190.97Z" fill="#E0E0E0"/>
<path d="M115.95 162.5C115.88 162.5 115.89 161.22 115.98 158.91C116.11 156.6 116.43 153.27 117.08 149.18C117.77 145.1 118.73 140.26 120.25 135C120.91 132.6 122.45 126.83 126.18 118.22C131.1 106.55 137.78 97.01 143.59 91.11C144.95 89.54 146.47 88.41 147.69 87.3C148.32 86.77 148.87 86.24 149.44 85.82C150.01 85.43 150.54 85.06 151.03 84.72C152.94 83.41 154.01 82.72 154.05 82.78C154.22 83.01 149.77 85.64 144.14 91.62C138.54 97.59 132.04 107.07 127.16 118.64C124.44 124.91 122.54 130.51 121.2 135.26C119.64 140.47 118.61 145.26 117.83 149.3C117.09 153.35 116.66 156.65 116.4 158.94C116.17 161.23 116.02 162.5 115.95 162.5Z" fill="#E0E0E0"/>
<path d="M143.47 212.73L140.62 251.83H90.39L87.5401 212.73H143.47Z" fill="#E0E0E0"/>
<path d="M81.5401 197.32H148.32V212.73H81.5401V197.32Z" fill="#E0E0E0"/>
<path d="M148.32 250.33V254.6H145.18H82.6501V250.33H148.32Z" fill="#EBEBEB"/>
<path d="M142.11 262.12L145.18 254.6H85.0401L88.6301 262.12H142.11Z" fill="#E0E0E0"/>
<path d="M88.4701 225.51C88.4601 225.52 88.5401 225.64 88.7001 225.87C88.9001 226.13 89.1501 226.46 89.4501 226.87C90.16 227.78 91.1401 229.04 92.3801 230.61L92.5101 230.78L92.6401 230.61C94.4801 228.07 96.9401 224.67 99.8301 220.67H99.4201C101.56 223.7 103.94 227.07 106.5 230.69L106.72 231L106.97 230.7C109.58 227.59 112.42 224.22 115.36 220.71L114.88 220.7C115.03 220.88 115.18 221.08 115.34 221.28C117.94 224.54 120.46 227.7 122.84 230.69L123.09 231L123.32 230.67C125.87 227.06 128.25 223.7 130.4 220.65L129.99 220.67C133.48 224.65 136.44 228.02 138.71 230.61L138.86 230.79L138.98 230.59C140.13 228.66 141.05 227.12 141.71 226C142 225.5 142.23 225.1 142.41 224.78C142.56 224.5 142.64 224.35 142.62 224.34C142.61 224.33 142.51 224.46 142.33 224.73C142.13 225.04 141.87 225.43 141.55 225.91C140.85 227.01 139.89 228.52 138.68 230.41L138.95 230.39C136.72 227.77 133.8 224.36 130.37 220.33L130.15 220.08L129.95 220.35C127.78 223.38 125.38 226.73 122.81 230.32L123.29 230.31C120.91 227.32 118.4 224.16 115.8 220.89C115.64 220.69 115.48 220.49 115.34 220.31L115.1 220.01L114.85 220.3C111.91 223.81 109.08 227.19 106.48 230.31L106.95 230.33C104.37 226.73 101.96 223.37 99.8001 220.36L99.59 220.07L99.3901 220.36C96.5601 224.4 94.1501 227.84 92.3501 230.41L92.6101 230.4C91.3301 228.86 90.3101 227.64 89.5701 226.75C89.2401 226.37 88.9701 226.06 88.7501 225.81C88.5901 225.6 88.4801 225.5 88.4701 225.51Z" fill="#F5F5F5"/>
<path d="M86.84 212.47C86.84 212.64 99.42 212.78 114.94 212.78C130.47 212.78 143.05 212.64 143.05 212.47C143.05 212.3 130.47 212.16 114.94 212.16C99.43 212.16 86.84 212.3 86.84 212.47Z" fill="#F5F5F5"/>
<path d="M84.3 255.02C84.3 255.19 97.98 255.33 114.84 255.33C131.71 255.33 145.39 255.19 145.39 255.02C145.39 254.85 131.72 254.71 114.84 254.71C97.98 254.71 84.3 254.85 84.3 255.02Z" fill="#F5F5F5"/>
<path d="M203.94 180.66L183.8 160.75L219.72 99.23C223.46 94.95 228.19 91.66 233.51 89.64L246.15 84.84L277.6 79.07L299.93 87.86C305.57 90.08 309.01 95.83 308.29 101.86L302.45 151.02L299.01 215.03L217.88 200.96L226.04 177.28L225.77 140.37L203.94 180.66Z" fill="#5F85FF"/>
<path d="M225.3 175.71C225.11 175.71 225.06 162.92 225.19 147.15C225.32 131.37 225.58 118.59 225.77 118.59C225.96 118.59 226.01 131.38 225.88 147.15C225.75 162.93 225.49 175.71 225.3 175.71Z" fill="#263238"/>
<path d="M228.27 185.09L277.29 165.36C281.24 163.77 283.95 160.07 284.28 155.82L287.87 108.82C287.87 108.82 287.45 88.83 299.93 87.86L307.03 90.66C316.21 95.54 318.48 108.9 317.23 119.22C315.45 133.88 314.71 154.63 312.73 167.36C311.1 177.77 304.85 186 294.95 189.61L234.57 202.68L228.27 185.09Z" fill="#5F85FF"/>
<path d="M287.16 115.99C287.14 115.99 287.08 116.36 287.01 117.07C286.93 117.84 286.83 118.87 286.7 120.17C286.45 122.92 286.1 126.8 285.66 131.57C285.24 136.4 284.75 142.13 284.21 148.48C284.08 150.07 283.94 151.7 283.8 153.37C283.65 155.04 283.55 156.74 283.17 158.4C282.81 160.06 282.01 161.62 280.73 162.8C279.46 163.99 277.87 164.86 276.21 165.61C262.69 171.46 250.23 176.29 241.19 179.68C236.7 181.33 233.05 182.68 230.45 183.64C229.23 184.09 228.25 184.45 227.53 184.72C226.86 184.97 226.52 185.11 226.53 185.14C226.54 185.16 226.9 185.06 227.58 184.85C228.31 184.61 229.3 184.29 230.54 183.89C233.11 183.04 236.8 181.77 241.35 180.13C250.45 176.85 262.92 172.09 276.48 166.23C278.17 165.46 279.82 164.57 281.18 163.29C282.55 162.03 283.43 160.29 283.79 158.56C284.18 156.82 284.27 155.1 284.41 153.44C284.54 151.77 284.67 150.14 284.8 148.55C285.29 142.19 285.74 136.46 286.11 131.62C286.46 126.85 286.74 122.96 286.94 120.2C287.02 118.9 287.08 117.86 287.13 117.09C287.18 116.37 287.19 115.99 287.16 115.99Z" fill="#263238"/>
<path d="M315.25 141.54C315.23 141.54 315.2 141.76 315.15 142.17C315.11 142.66 315.05 143.26 314.99 143.98C314.84 145.65 314.65 147.91 314.41 150.65C314.14 153.46 313.8 156.81 313.31 160.51C312.81 164.2 312.21 168.28 311.1 172.42C310.57 174.51 309.83 176.44 308.71 178.1C307.59 179.77 306.34 181.27 305.05 182.6C302.46 185.25 299.69 187.19 297.21 188.49C292.19 191.1 288.55 191.13 288.6 191.31C288.6 191.33 288.82 191.33 289.24 191.3C289.66 191.27 290.27 191.22 291.05 191.07C292.61 190.79 294.86 190.18 297.42 188.91C299.97 187.65 302.82 185.71 305.48 183.04C306.81 181.7 308.09 180.18 309.24 178.48C310.41 176.77 311.21 174.71 311.73 172.62C312.86 168.42 313.44 164.33 313.91 160.62C314.37 156.9 314.66 153.54 314.87 150.72C315.08 147.9 315.19 145.61 315.24 144.03C315.26 143.3 315.27 142.7 315.28 142.21C315.29 141.76 315.27 141.54 315.25 141.54Z" fill="#263238"/>
<path d="M294.29 174.43C294.36 174.41 294.15 173.36 293.4 171.82C292.66 170.28 291.28 168.28 289.28 166.57C287.27 164.86 285.09 163.82 283.45 163.33C281.81 162.83 280.74 162.79 280.73 162.86C280.71 162.97 281.74 163.17 283.3 163.77C284.86 164.36 286.92 165.43 288.86 167.07C290.79 168.72 292.17 170.59 292.99 172.04C293.82 173.48 294.18 174.47 294.29 174.43Z" fill="#263238"/>
<g opacity="0.3">
<g opacity="0.3">
<g opacity="0.3">
<path opacity="0.3" d="M242.36 179.49C247.6 176.53 252.73 174.25 258.21 171.76C263.69 169.27 269.06 166.07 272.65 161.24C279.42 152.12 278.64 138.96 285.57 129.96C285.12 136.01 284.67 142.06 284.21 148.11C283.8 153.66 284.65 159.14 281.07 162.91C278.06 166.08 272.19 168.52 268.04 169.89C259.7 172.65 250.71 176.74 242.36 179.49Z" fill="black"/>
</g>
</g>
</g>
<path opacity="0.3" d="M225.76 122.06L221.52 148.21L225.53 140.8L225.76 122.06Z" fill="black"/>
<path d="M288.64 105.92C288.64 105.96 289.05 105.99 289.78 106.01C290.62 106.03 291.65 106.06 292.87 106.09C295.48 106.16 299.08 106.29 303.05 106.57C307.02 106.86 310.61 107.24 313.2 107.55C314.41 107.69 315.44 107.81 316.27 107.91C317 107.99 317.4 108.02 317.41 107.99C317.42 107.95 317.02 107.86 316.3 107.71C315.58 107.56 314.54 107.38 313.25 107.18C310.66 106.78 307.07 106.34 303.09 106.05C299.11 105.77 295.49 105.69 292.87 105.72C291.56 105.73 290.5 105.76 289.77 105.81C289.04 105.84 288.64 105.88 288.64 105.92Z" fill="#455A64"/>
<path d="M287.25 130.95C287.24 131.09 293.66 131.74 301.6 132.4C309.54 133.06 315.98 133.47 315.99 133.33C316 133.19 309.58 132.54 301.64 131.88C293.7 131.22 287.26 130.81 287.25 130.95Z" fill="#455A64"/>
<path d="M284.88 157.27C284.86 157.3 285.23 157.51 285.9 157.85C286.57 158.2 287.56 158.66 288.8 159.18C291.28 160.23 294.81 161.46 298.83 162.37C302.85 163.27 306.57 163.66 309.26 163.76C310.61 163.82 311.7 163.82 312.45 163.79C313.2 163.76 313.62 163.73 313.62 163.7C313.62 163.66 313.2 163.63 312.45 163.59C311.7 163.56 310.62 163.5 309.28 163.39C306.61 163.19 302.93 162.75 298.94 161.86C294.96 160.96 291.44 159.8 288.94 158.84C287.69 158.36 286.68 157.96 285.99 157.67C285.29 157.38 284.9 157.23 284.88 157.27Z" fill="#455A64"/>
<path d="M267.46 170.76C267.38 170.91 270.01 172.08 272.32 174.66C274.66 177.22 275.55 179.96 275.71 179.89C275.77 179.87 275.63 179.17 275.17 178.1C274.72 177.04 273.9 175.63 272.71 174.31C271.52 172.99 270.2 172.04 269.19 171.48C268.17 170.92 267.48 170.71 267.46 170.76Z" fill="#455A64"/>
<path d="M249.73 188.09C249.86 188.06 249.29 185.62 247.81 182.93C246.34 180.23 244.59 178.44 244.5 178.53C244.38 178.63 245.92 180.54 247.36 183.18C248.79 185.81 249.58 188.14 249.73 188.09Z" fill="#455A64"/>
<path d="M277.67 91.2C277.64 91.34 280.75 92.02 284.6 92.72C288.45 93.42 291.6 93.87 291.63 93.73C291.65 93.58 288.55 92.9 284.69 92.2C280.84 91.51 277.69 91.06 277.67 91.2Z" fill="#455A64"/>
<path d="M230.74 93.33C230.76 93.47 235.06 93.08 240.35 92.45C245.64 91.82 249.92 91.2 249.9 91.05C249.88 90.91 245.58 91.3 240.29 91.93C235 92.57 230.72 93.19 230.74 93.33Z" fill="#455A64"/>
<path d="M226.73 115.16C226.73 115.18 226.94 115.19 227.34 115.2C227.8 115.2 228.38 115.21 229.1 115.21C230.7 115.21 232.89 115.21 235.57 115.2C241.03 115.2 248.57 115.24 256.9 115.45C265.23 115.67 272.77 116.01 278.22 116.29C280.9 116.43 283.09 116.55 284.68 116.63C285.4 116.66 285.98 116.69 286.44 116.71C286.84 116.72 287.05 116.72 287.06 116.7C287.06 116.68 286.85 116.65 286.45 116.6C285.99 116.55 285.41 116.5 284.7 116.43C283.18 116.29 280.97 116.11 278.25 115.92C272.8 115.54 265.26 115.14 256.92 114.92C248.59 114.71 241.04 114.72 235.57 114.82C232.84 114.87 230.63 114.93 229.1 114.99C228.38 115.02 227.8 115.05 227.34 115.07C226.94 115.12 226.73 115.14 226.73 115.16Z" fill="#455A64"/>
<path d="M226.16 142.8C226.15 142.94 239.01 143.91 254.88 144.95C270.76 146 283.63 146.73 283.64 146.58C283.65 146.44 270.79 145.47 254.92 144.43C239.04 143.39 226.16 142.66 226.16 142.8Z" fill="#455A64"/>
<path d="M227.52 167.15C227.51 167.18 227.89 167.35 228.6 167.61C229.31 167.88 230.34 168.24 231.62 168.65C234.19 169.49 237.77 170.54 241.78 171.51C245.79 172.47 249.46 173.17 252.13 173.58C253.46 173.79 254.55 173.94 255.3 174.02C256.05 174.11 256.47 174.14 256.47 174.1C256.48 174.06 256.07 173.97 255.33 173.82C254.48 173.66 253.43 173.45 252.19 173.21C249.54 172.7 245.89 171.95 241.89 170.99C237.89 170.03 234.3 169.03 231.71 168.29C230.5 167.94 229.47 167.64 228.64 167.4C227.94 167.21 227.53 167.12 227.52 167.15Z" fill="#455A64"/>
<path d="M206.95 123.01C206.91 123.15 211.1 124.35 216.29 125.69C221.48 127.03 225.72 128.01 225.76 127.87C225.8 127.73 221.62 126.53 216.42 125.19C211.23 123.85 206.99 122.87 206.95 123.01Z" fill="#455A64"/>
<path d="M216.76 104.33C216.73 104.47 218.59 104.92 220.9 105.34C223.21 105.76 225.11 105.98 225.13 105.84C225.16 105.7 223.3 105.25 220.99 104.83C218.68 104.41 216.79 104.19 216.76 104.33Z" fill="#455A64"/>
<path d="M287.02 110.13C287.12 110.15 287.27 108.47 288.19 105.96C289.08 103.46 290.9 100.13 293.93 97.41C296.96 94.68 300.47 93.23 303.05 92.61C305.65 91.97 307.33 91.99 307.33 91.89C307.33 91.86 306.91 91.83 306.15 91.85C305.39 91.87 304.3 91.97 302.97 92.25C300.32 92.79 296.7 94.22 293.59 97.02C290.48 99.82 288.67 103.27 287.85 105.84C287.43 107.13 287.21 108.21 287.11 108.96C287 109.7 286.99 110.12 287.02 110.13Z" fill="#263238"/>
<path d="M228.61 96.79C228.47 96.77 227.69 100.86 226.88 105.93C226.07 111 225.53 115.13 225.67 115.16C225.81 115.18 226.59 111.09 227.4 106.02C228.21 100.95 228.75 96.82 228.61 96.79Z" fill="#263238"/>
<path d="M173.97 244.18C173.97 244.18 136.29 254.61 134.78 255.14C132.51 255.94 132.89 264.26 136.42 264.13C138.09 264.07 165.36 265.15 168.81 264.93C172.26 264.71 182.65 260.62 182.65 260.62L173.97 244.18Z" fill="#FF725E"/>
<path d="M158.28 258.56C158.09 258.59 157.84 256.59 156.62 254.51C155.43 252.41 153.84 251.19 153.96 251.04C154.03 250.89 155.9 251.96 157.17 254.19C158.46 256.42 158.44 258.57 158.28 258.56Z" fill="#263238"/>
<path d="M162.2 256.78C162.02 256.81 161.63 255.03 160.63 253.06C159.65 251.08 158.44 249.71 158.58 249.59C158.68 249.47 160.16 250.7 161.2 252.78C162.25 254.85 162.37 256.77 162.2 256.78Z" fill="#263238"/>
<path d="M165.89 255.79C165.7 255.78 165.85 253.9 165.01 251.81C164.21 249.71 162.83 248.42 162.96 248.29C163.04 248.15 164.72 249.31 165.6 251.58C166.49 253.84 166.04 255.84 165.89 255.79Z" fill="#263238"/>
<path d="M165.22 250.92C165.15 250.94 164.82 249.88 164.82 248.12C164.82 247.24 164.92 246.19 165.2 245.05C165.34 244.48 165.52 243.89 165.76 243.3C165.88 243 166.02 242.66 166.36 242.38C166.71 242.06 167.35 242.13 167.65 242.44C168 242.74 168.1 243.17 168.15 243.51C168.19 243.86 168.21 244.18 168.2 244.51C168.19 245.16 168.11 245.78 167.97 246.35C167.69 247.5 167.24 248.47 166.81 249.23C165.93 250.76 165.17 251.54 165.12 251.5C165.03 251.44 165.67 250.56 166.42 249.03C166.79 248.26 167.18 247.32 167.41 246.23C167.53 245.69 167.59 245.11 167.59 244.51C167.57 243.93 167.58 243.21 167.24 242.93C167.06 242.78 166.9 242.77 166.74 242.89C166.57 243.02 166.43 243.28 166.33 243.55C166.1 244.11 165.91 244.67 165.76 245.21C165.46 246.29 165.32 247.3 165.26 248.15C165.15 249.84 165.32 250.91 165.22 250.92Z" fill="#263238"/>
<path d="M165.27 250.54C165.25 250.47 166.16 250.16 167.7 250.15C168.47 250.15 169.38 250.23 170.37 250.48C170.86 250.61 171.38 250.74 171.91 251.05C172.43 251.31 172.97 252.03 172.76 252.77C172.6 253.47 172 253.96 171.4 254.12C170.8 254.29 170.22 254.23 169.71 254.12C168.68 253.88 167.87 253.37 167.26 252.92C166.05 251.97 165.46 251.25 165.51 251.2C165.58 251.12 166.29 251.74 167.52 252.56C168.14 252.95 168.91 253.38 169.83 253.56C170.29 253.65 170.78 253.67 171.23 253.54C171.67 253.42 172.04 253.08 172.15 252.64C172.26 252.22 172 251.83 171.59 251.59C171.19 251.34 170.69 251.2 170.22 251.06C169.29 250.79 168.42 250.67 167.68 250.62C166.21 250.49 165.28 250.64 165.27 250.54Z" fill="#263238"/>
<path d="M152.49 258.96C152.3 258.94 152.49 257.33 151.75 255.56C151.04 253.78 149.79 252.76 149.91 252.61C149.97 252.46 151.55 253.35 152.34 255.32C153.14 257.29 152.64 259.03 152.49 258.96Z" fill="#263238"/>
<path d="M178.78 260.7C178.8 260.74 178.28 260.98 177.32 261.39C176.35 261.76 174.94 262.27 173.13 262.69C169.53 263.6 164.39 264.11 158.74 264.05C153.09 263.99 148.01 263.73 144.32 263.58C142.57 263.49 141.11 263.41 139.95 263.35C138.92 263.28 138.35 263.22 138.35 263.18C138.35 263.14 138.92 263.11 139.96 263.11C141.12 263.12 142.58 263.13 144.33 263.14C148.15 263.21 153.18 263.31 158.74 263.42C164.36 263.48 169.43 263.04 173.02 262.25C176.63 261.51 178.73 260.58 178.78 260.7Z" fill="#263238"/>
<path d="M179.89 261.56C179.84 261.65 178.81 261.04 177.07 260.28C175.35 259.54 172.77 258.66 169.94 259.09C167.1 259.52 165.09 261.43 163.78 262.76C162.46 264.13 161.69 265.04 161.61 264.98C161.55 264.93 162.2 263.93 163.45 262.46C164.09 261.73 164.89 260.89 165.95 260.12C166.99 259.35 168.34 258.7 169.84 258.47C172.88 258.01 175.55 259.02 177.26 259.87C178.99 260.76 179.93 261.5 179.89 261.56Z" fill="#263238"/>
<path d="M218.57 235.43C218.57 235.43 254.22 258.77 255.5 259.74C257.42 261.19 255.22 268.1 251.89 266.9C250.32 266.33 220.4 258.01 217.18 256.76C213.96 255.51 205.3 248.45 205.3 248.45L218.57 235.43Z" fill="#FF725E"/>
<path d="M229.16 253.9C229 253.87 229.64 251.81 231.55 250.08C233.44 248.34 235.55 247.89 235.57 248.05C235.64 248.23 233.75 248.91 231.98 250.55C230.18 252.16 229.33 253.98 229.16 253.9Z" fill="#263238"/>
<path d="M225.95 251.01C225.8 250.95 226.49 249.16 228.12 247.5C229.74 245.83 231.52 245.1 231.58 245.25C231.67 245.41 230.11 246.35 228.57 247.94C227.02 249.51 226.12 251.1 225.95 251.01Z" fill="#263238"/>
<path d="M222.74 248.95C222.58 248.96 222.76 246.91 224.3 245.03C225.82 243.13 227.79 242.53 227.82 242.69C227.9 242.86 226.2 243.66 224.79 245.42C223.36 247.16 222.93 249 222.74 248.95Z" fill="#263238"/>
<path d="M224.86 244.52C224.77 244.47 225.25 243.51 225.67 241.85C225.87 241.02 226.04 240.02 226.09 238.9C226.11 238.34 226.1 237.75 226.05 237.14C226.03 236.85 225.98 236.56 225.86 236.39C225.75 236.23 225.59 236.19 225.37 236.28C224.96 236.44 224.75 237.13 224.56 237.68C224.38 238.25 224.26 238.82 224.21 239.38C224.1 240.49 224.18 241.5 224.3 242.35C224.55 244.04 224.88 245.07 224.78 245.1C224.72 245.12 224.23 244.15 223.86 242.42C223.68 241.56 223.55 240.5 223.63 239.32C223.67 238.73 223.78 238.11 223.97 237.49C224.06 237.18 224.18 236.87 224.32 236.56C224.47 236.25 224.7 235.88 225.12 235.7C225.5 235.49 226.13 235.62 226.37 236.03C226.61 236.4 226.64 236.77 226.66 237.09C226.71 237.73 226.7 238.34 226.66 238.93C226.58 240.1 226.36 241.13 226.09 241.97C225.55 243.65 224.92 244.55 224.86 244.52Z" fill="#263238"/>
<path d="M224.93 244.14C224.88 244.23 224.05 243.81 222.61 243.46C221.89 243.29 221.03 243.14 220.06 243.11C219.58 243.1 219.06 243.09 218.6 243.2C218.13 243.31 217.77 243.6 217.75 244.03C217.72 244.48 217.97 244.91 218.35 245.16C218.73 245.42 219.21 245.55 219.68 245.6C220.61 245.71 221.48 245.54 222.19 245.35C223.61 244.94 224.48 244.57 224.52 244.66C224.55 244.72 223.77 245.24 222.33 245.77C221.61 246.02 220.69 246.26 219.63 246.17C219.11 246.12 218.54 246 218.02 245.66C217.5 245.33 217.08 244.68 217.14 243.97C217.17 243.2 217.9 242.68 218.47 242.59C219.07 242.46 219.6 242.49 220.11 242.52C221.13 242.58 222.03 242.79 222.76 243.02C224.2 243.5 224.97 244.08 224.93 244.14Z" fill="#263238"/>
<path d="M247.35 265.61C247.31 265.67 246.75 265.25 246.48 264.23C246.18 263.23 246.37 261.7 247.15 260.36C247.52 259.68 247.95 259.1 248.34 258.58C248.73 258.06 249.13 257.59 249.55 257.28C249.96 256.96 250.39 256.81 250.69 256.8C250.99 256.79 251.14 256.86 251.14 256.9C251.14 257 250.5 256.95 249.84 257.62C249.51 257.94 249.17 258.39 248.81 258.92C248.44 259.45 248.05 260.03 247.7 260.66C246.98 261.92 246.76 263.22 246.92 264.14C247.04 265.06 247.43 265.54 247.35 265.61Z" fill="#263238"/>
<path d="M234.55 256.04C234.38 256.06 234.43 254.25 235.81 252.62C237.16 250.98 238.93 250.61 238.95 250.77C239.02 250.94 237.51 251.54 236.3 253.02C235.05 254.49 234.73 256.08 234.55 256.04Z" fill="#263238"/>
<path d="M208.97 249.71C209 249.67 209.55 250.07 210.54 250.79C211.54 251.48 213.02 252.46 214.94 253.48C216.86 254.51 219.22 255.58 221.92 256.59C224.62 257.6 227.65 258.55 230.85 259.47C237.26 261.32 243.07 263.01 247.26 264.27C249.27 264.89 250.94 265.4 252.21 265.79C253.38 266.16 254.01 266.39 254 266.43C253.99 266.47 253.33 266.33 252.14 266.03C250.85 265.69 249.16 265.24 247.13 264.7C242.91 263.55 237.09 261.93 230.66 260.08C227.45 259.15 224.41 258.18 221.7 257.13C218.99 256.08 216.62 254.96 214.71 253.87C212.8 252.78 211.35 251.74 210.38 250.98C209.44 250.21 208.95 249.74 208.97 249.71Z" fill="#263238"/>
<path d="M207.65 250.19C207.63 250.12 208.76 249.7 210.67 249.39C212.55 249.09 215.41 248.94 218.16 250.31C219.52 250.99 220.61 252.02 221.37 253.06C222.14 254.11 222.66 255.16 223.04 256.04C223.79 257.82 224.1 258.97 224.03 259C223.94 259.04 223.48 257.94 222.63 256.23C221.78 254.57 220.44 252.14 217.87 250.87C215.31 249.59 212.58 249.65 210.72 249.83C208.84 250.03 207.67 250.29 207.65 250.19Z" fill="#263238"/>
<path d="M144.45 177.05C144.45 177.05 133.75 180.87 133.71 192.86C133.62 215.83 180.13 241.16 180.13 241.16L242.02 200.15L245.9 198.58C245.89 198.59 162.35 167.21 144.45 177.05Z" fill="#263238"/>
<path d="M210.66 220.87C210.63 220.9 210.06 220.51 209.05 219.78C208.04 219.04 206.59 217.95 204.82 216.58C201.28 213.84 196.46 209.96 191.27 205.51C186.08 201.06 181.52 196.88 178.27 193.79C176.65 192.25 175.35 190.98 174.47 190.09C173.59 189.2 173.12 188.69 173.15 188.66C173.18 188.63 173.71 189.08 174.64 189.91C175.65 190.82 176.98 192.02 178.57 193.46C181.89 196.46 186.49 200.58 191.67 205.03C196.85 209.47 201.62 213.41 205.09 216.23C206.76 217.59 208.14 218.72 209.2 219.58C210.17 220.38 210.69 220.83 210.66 220.87Z" fill="#455A64"/>
<path d="M161.92 185.64C161.9 185.49 164.66 185.22 167.88 186.18C171.11 187.12 173.29 188.85 173.18 188.96C173.08 189.12 170.82 187.69 167.7 186.78C164.59 185.85 161.92 185.83 161.92 185.64Z" fill="#455A64"/>
<path d="M167.25 182.02C167.31 181.87 169.29 182.74 170.92 184.78C172.57 186.8 173 188.93 172.85 188.95C172.67 189.01 171.99 187.08 170.43 185.18C168.89 183.25 167.15 182.18 167.25 182.02Z" fill="#455A64"/>
<path d="M141.04 254.76C141.01 254.69 141.78 254.54 142.64 255.24C143.48 255.91 144.2 257.26 144.43 258.83C144.66 260.41 144.31 261.87 143.87 262.79C143.43 263.73 142.95 264.17 142.9 264.13C142.81 264.07 143.15 263.55 143.46 262.63C143.77 261.72 144.03 260.38 143.81 258.92C143.6 257.48 143.01 256.23 142.35 255.57C141.68 254.89 141.03 254.86 141.04 254.76Z" fill="#263238"/>
<path d="M148.87 144.42L166.48 191.85C167.49 194.56 170.09 196.34 172.98 196.31L269.89 195.03V187.67L233.93 188.98L218.66 141.64C218.14 140.04 216.65 138.96 214.97 138.96L152.45 139.14C149.73 139.15 147.87 141.89 148.87 144.42Z" fill="#E0E0E0"/>
<path d="M148.87 144.42C148.87 144.42 148.86 144.37 148.83 144.27C148.81 144.17 148.74 144.03 148.71 143.83C148.62 143.44 148.55 142.82 148.75 142.05C148.95 141.3 149.45 140.37 150.45 139.76C150.94 139.46 151.54 139.24 152.21 139.2C152.88 139.17 153.6 139.19 154.36 139.18C160.47 139.17 169.34 139.16 180.44 139.15C186 139.14 192.11 139.13 198.71 139.12C202.01 139.11 205.44 139.11 208.98 139.1C210.75 139.1 212.55 139.09 214.37 139.09C215.29 139.04 216.18 139.16 216.95 139.66C217.71 140.14 218.3 140.89 218.55 141.77C223.16 156.09 228.29 172.01 233.77 189.03L233.81 189.14H233.93C245.4 188.72 257.48 188.28 269.89 187.83L269.73 187.67C269.73 188.08 269.73 188.53 269.73 188.98C269.73 191.05 269.73 193.12 269.73 195.03L269.88 194.87C248.2 195.16 227.62 195.44 208.94 195.69C199.6 195.82 190.74 195.94 182.45 196.05C180.38 196.08 178.34 196.11 176.34 196.13C175.34 196.14 174.35 196.16 173.37 196.17C172.39 196.21 171.44 196.1 170.55 195.76C168.78 195.11 167.34 193.7 166.67 192.02C166.03 190.3 165.39 188.61 164.78 186.97C159.87 173.8 155.9 163.16 153.16 155.8C151.79 152.14 150.72 149.3 149.99 147.35C149.27 145.43 148.87 144.42 148.87 144.42C148.87 144.42 149.23 145.44 149.93 147.38C150.65 149.33 151.69 152.18 153.04 155.85C155.76 163.22 159.7 173.87 164.57 187.05C165.18 188.7 165.81 190.39 166.45 192.12C167.14 193.86 168.63 195.32 170.46 196C171.37 196.35 172.38 196.47 173.36 196.43C174.34 196.42 175.33 196.41 176.33 196.39C178.33 196.37 180.36 196.34 182.44 196.31C190.73 196.21 199.59 196.09 208.93 195.98C227.61 195.74 248.19 195.47 269.87 195.19H270.02V195.04C270.02 193.13 270.02 191.06 270.02 188.99C270.02 188.54 270.02 188.09 270.02 187.68V187.52L269.86 187.53C257.45 187.98 245.37 188.43 233.9 188.85L234.05 188.96C228.55 171.94 223.41 156.02 218.79 141.71C218.52 140.78 217.88 139.97 217.07 139.46C216.26 138.93 215.25 138.81 214.35 138.86C212.52 138.87 210.73 138.87 208.96 138.88C205.42 138.89 202 138.91 198.69 138.92C192.09 138.95 185.97 138.97 180.42 138.99C169.32 139.04 160.45 139.08 154.34 139.11C153.58 139.12 152.86 139.1 152.18 139.14C151.5 139.18 150.88 139.41 150.38 139.72C149.37 140.35 148.87 141.3 148.67 142.07C148.48 142.85 148.56 143.48 148.66 143.87C148.79 144.23 148.87 144.42 148.87 144.42Z" fill="#263238"/>
<path d="M191.85 162.36C190.59 161.51 188.27 161.85 187.14 162.86C186.01 163.87 185.64 165.63 186.22 167.03C186.79 168.44 188.24 169.42 189.76 169.5C191.37 169.59 193.05 168.58 193.5 167.03C193.94 165.48 193.44 163.17 191.85 162.36Z" fill="white"/>
<path d="M169.69 243.75C169.69 243.75 257.03 187.81 260.89 185.61C264.17 183.74 272.95 178.34 281.6 180.73C290.25 183.12 298.01 190.87 301.89 202.21C304.11 208.69 305.15 219.74 305.64 228.03C306.23 237.94 303.16 247.82 296.68 255.34C293.73 258.76 290.09 261.74 285.78 263.08C284.87 263.36 283.92 263.61 282.95 263.82C266.42 267.4 249.43 259.98 240.14 245.85L238.1 242.75C238.1 242.75 180.9 263.76 180.01 263.47L169.69 243.75Z" fill="#263238"/>
<path d="M256.38 188.7C256.39 188.71 256.46 188.66 256.6 188.57C256.76 188.46 256.96 188.32 257.21 188.15C257.74 187.78 258.53 187.23 259.57 186.57C261.64 185.25 264.71 183.36 268.85 181.86C270.91 181.12 273.27 180.53 275.84 180.39C278.4 180.28 281.18 180.66 283.87 181.7C286.58 182.71 289.2 184.33 291.59 186.38C292.79 187.41 293.94 188.53 295.02 189.75C296.09 190.97 297.03 192.34 297.86 193.79C299.52 196.69 300.75 199.76 301.63 202.79C302.45 205.84 303.11 208.85 303.74 211.69C304.99 217.39 305.66 222.61 305.75 227.01C305.82 231.42 305.38 234.97 304.96 237.4C304.77 238.62 304.55 239.55 304.42 240.19C304.36 240.48 304.32 240.72 304.28 240.92C304.25 241.08 304.24 241.17 304.25 241.17C304.26 241.17 304.29 241.09 304.33 240.93C304.38 240.74 304.44 240.5 304.52 240.22C304.68 239.59 304.93 238.66 305.16 237.44C305.64 235.02 306.15 231.45 306.12 227.01C306.08 222.58 305.44 217.31 304.21 211.59C303.59 208.73 302.95 205.74 302.12 202.65C301.24 199.58 300 196.48 298.31 193.53C297.47 192.06 296.51 190.67 295.41 189.41C294.31 188.17 293.14 187.04 291.92 186C289.49 183.92 286.81 182.28 284.04 181.26C281.28 180.21 278.44 179.84 275.81 179.97C273.19 180.13 270.8 180.76 268.72 181.53C264.56 183.1 261.5 185.04 259.46 186.42C258.44 187.11 257.67 187.69 257.15 188.09C256.91 188.28 256.72 188.43 256.57 188.55C256.44 188.64 256.37 188.7 256.38 188.7Z" fill="#455A64"/>
<path d="M277.87 227.96C277.87 227.96 277.71 228.04 277.39 228.17C277.04 228.31 276.57 228.5 275.96 228.74C274.67 229.24 272.81 229.95 270.42 230.87C265.56 232.7 258.54 235.35 249.82 238.63C241.07 241.89 230.59 245.78 218.83 250.06C207.07 254.33 194.03 259.03 180.11 263.74L179.86 263.83L179.74 263.59C177.55 259.42 175.25 255.01 172.91 250.54C171.72 248.26 170.53 246 169.43 243.89L169.3 243.63L169.54 243.48C195.8 226.81 219.29 211.9 236.24 201.14C244.7 195.8 251.53 191.49 256.27 188.5C258.62 187.04 260.44 185.89 261.71 185.1C262.32 184.73 262.79 184.44 263.13 184.23C263.45 184.04 263.62 183.95 263.62 183.95C263.62 183.95 263.47 184.07 263.16 184.28C262.83 184.5 262.37 184.81 261.77 185.2C260.52 186.01 258.71 187.19 256.39 188.69C251.68 191.72 244.88 196.08 236.46 201.49C219.54 212.29 196.08 227.26 169.87 243.99L169.98 243.58C171.09 245.69 172.27 247.95 173.46 250.23C175.8 254.7 178.1 259.1 180.29 263.28L179.91 263.13C193.82 258.43 206.86 253.76 218.64 249.52C230.39 245.24 240.89 241.42 249.68 238.22C258.43 235.01 265.47 232.43 270.35 230.64C272.76 229.76 274.63 229.08 275.93 228.61C276.55 228.39 277.03 228.22 277.38 228.1C277.69 228 277.87 227.96 277.87 227.96Z" fill="#455A64"/>
<path d="M273.34 42.36C274.86 39.36 276.4 36.34 277.22 33.08C278.04 29.82 278.09 26.26 276.7 23.2C275.89 21.41 274.61 19.84 273.97 17.98C273.09 15.42 273.45 12.4 271.87 10.21C269.39 6.78 264.1 7.58 260.27 5.79C257.29 4.39 255.21 1.38 252.07 0.370001C249.33 -0.509999 246.34 0.330001 243.7 1.47C241.06 2.6 238.48 4.04 235.62 4.42C233.59 4.69 231.52 4.39 229.47 4.44C227.42 4.48 225.24 4.94 223.8 6.4C222.36 7.86 222.05 10.55 223.62 11.87C220.03 11.26 216.65 14.84 216.7 18.48C216.75 22.12 219.49 25.32 222.8 26.83C226.11 28.34 229.89 28.44 233.51 28.16C243.78 27.36 254.1 23.46 261.09 15.89" fill="#FF725E"/>
<path d="M271.13 29.51L278.13 80.36C279.32 89.01 273.03 96.89 264.34 97.65C256.23 98.36 248.98 92.57 247.88 84.5C247.36 80.67 246.91 77.48 246.83 77.09C246.83 77.09 233.72 77.65 231.02 64.97C229.72 58.84 228.06 46 226.69 34.36C225.22 21.86 233.62 10.34 245.96 7.86999L247.19 7.61999C260.57 5.75999 269.63 16.08 271.13 29.51Z" fill="#FFBE9D"/>
<path d="M246.77 76.91C246.77 76.91 254.94 75.96 262.4 68.89C262.4 68.89 260.31 78.82 247.39 80.21L246.77 76.91Z" fill="#EB996E"/>
<path d="M232.39 45.17C232.55 46.14 233.5 46.8 234.51 46.65C235.52 46.5 236.21 45.6 236.05 44.64C235.89 43.67 234.94 43.01 233.93 43.16C232.93 43.31 232.24 44.21 232.39 45.17Z" fill="#263238"/>
<path d="M230.67 40.06C230.94 40.25 232.11 38.96 234.07 38.57C236.02 38.16 237.65 38.88 237.82 38.59C237.9 38.46 237.59 38.08 236.87 37.75C236.16 37.42 235.03 37.19 233.81 37.44C232.59 37.69 231.66 38.34 231.16 38.92C230.66 39.5 230.54 39.97 230.67 40.06Z" fill="#263238"/>
<path d="M250.62 42.03C250.78 43 251.73 43.66 252.74 43.51C253.75 43.36 254.44 42.46 254.28 41.5C254.12 40.53 253.17 39.87 252.16 40.02C251.15 40.16 250.46 41.06 250.62 42.03Z" fill="#263238"/>
<path d="M249.95 36.58C250.22 36.77 251.4 35.48 253.35 35.09C255.3 34.68 256.93 35.4 257.1 35.11C257.18 34.98 256.87 34.6 256.15 34.27C255.44 33.94 254.31 33.71 253.09 33.96C251.87 34.21 250.94 34.86 250.44 35.44C249.94 36.03 249.82 36.5 249.95 36.58Z" fill="#263238"/>
<path d="M245.75 52.49C245.74 52.38 244.48 52.41 242.46 52.55C241.95 52.6 241.46 52.59 241.31 52.27C241.12 51.93 241.22 51.35 241.35 50.72C241.58 49.42 241.82 48.06 242.07 46.63C243.04 40.81 243.63 36.07 243.4 36.03C243.17 35.99 242.19 40.68 241.22 46.5C240.99 47.93 240.78 49.3 240.57 50.6C240.49 51.2 240.3 51.91 240.7 52.61C240.91 52.96 241.33 53.15 241.67 53.18C242.01 53.21 242.29 53.16 242.54 53.13C244.54 52.84 245.77 52.6 245.75 52.49Z" fill="#263238"/>
<path d="M251.77 52.69C251.45 52.73 251.87 54.86 250.35 56.72C248.84 58.59 246.53 58.81 246.57 59.11C246.57 59.25 247.16 59.42 248.12 59.26C249.06 59.11 250.37 58.53 251.3 57.39C252.22 56.25 252.45 54.92 252.35 54.03C252.26 53.13 251.92 52.65 251.77 52.69Z" fill="#263238"/>
<path d="M247.91 29.03C248.21 29.52 250.11 28.88 252.46 28.7C254.8 28.47 256.79 28.77 257 28.24C257.09 27.98 256.67 27.55 255.82 27.18C254.98 26.81 253.7 26.56 252.29 26.68C250.88 26.8 249.67 27.27 248.9 27.78C248.12 28.29 247.78 28.79 247.91 29.03Z" fill="#FF725E"/>
<path d="M230.26 34.26C230.69 34.64 231.95 33.91 233.56 33.56C235.16 33.16 236.61 33.26 236.83 32.73C236.92 32.48 236.62 32.08 235.94 31.78C235.27 31.48 234.21 31.33 233.11 31.59C232 31.85 231.12 32.44 230.65 33.01C230.16 33.58 230.06 34.07 230.26 34.26Z" fill="#FF725E"/>
<path d="M271.97 39.13C272.17 38.99 280.19 34.8 281.65 43.55C283.11 52.3 274.03 51.96 273.97 51.71C273.91 51.46 271.97 39.13 271.97 39.13Z" fill="#FFBE9D"/>
<path d="M276.09 47.95C276.12 47.92 276.26 48.03 276.54 48.11C276.81 48.18 277.26 48.19 277.68 47.94C278.55 47.45 279.08 45.85 278.86 44.27C278.75 43.47 278.46 42.74 278.07 42.16C277.7 41.56 277.21 41.19 276.73 41.18C276.25 41.15 275.97 41.48 275.9 41.75C275.82 42.01 275.91 42.18 275.86 42.2C275.84 42.23 275.65 42.08 275.66 41.71C275.67 41.53 275.74 41.31 275.91 41.1C276.09 40.89 276.39 40.76 276.72 40.74C277.4 40.67 278.11 41.19 278.54 41.83C279 42.46 279.35 43.28 279.48 44.18C279.72 45.95 279.09 47.75 277.89 48.33C277.3 48.59 276.76 48.49 276.46 48.33C276.14 48.16 276.06 47.97 276.09 47.95Z" fill="#EB996E"/>
<path d="M224.17 22.55C225.67 25.78 233.39 27.03 239.05 25.32C244.27 23.75 246.16 20.43 249.48 17.55C251.58 15.72 251.58 15.72 255.01 15.37C257.78 15.08 260 17.84 262.1 19.68C260.93 26.63 264.03 33.52 267.04 39.89C267.37 40.59 267.75 41.35 268.45 41.69C269.64 42.28 271.05 41.35 271.76 40.23C272.89 38.44 273.03 36.21 272.99 34.09C272.89 29.27 272.05 24.42 270.09 20.01C268.13 15.6 265.02 11.64 260.94 9.06C255.85 5.83 249.44 4.91 243.54 6.18C237.65 7.45 232.29 10.83 228.29 15.34C226.42 17.43 224.8 19.83 224.17 22.55Z" fill="#FF725E"/>
<path d="M241.97 43.7C241.89 43.7 241.92 42.95 241.57 41.67C241.22 40.42 240.37 38.58 238.47 37.17C236.64 35.76 233.63 34.97 230.73 36.06C229.3 36.58 227.93 37.56 226.96 38.91C225.96 40.24 225.4 41.95 225.39 43.71C225.41 45.47 225.97 47.18 226.96 48.51C227.93 49.86 229.29 50.84 230.73 51.36C233.64 52.45 236.64 51.66 238.47 50.25C240.36 48.84 241.22 47.01 241.57 45.75C241.92 44.45 241.89 43.7 241.97 43.7C241.99 43.7 242.01 43.89 242.01 44.24C242.02 44.6 241.98 45.13 241.83 45.8C241.56 47.12 240.74 49.08 238.77 50.63C236.87 52.18 233.66 53.1 230.5 51.96C228.95 51.42 227.46 50.37 226.4 48.91C225.31 47.47 224.69 45.61 224.68 43.7C224.7 41.79 225.31 39.93 226.4 38.49C227.46 37.03 228.95 35.99 230.5 35.44C233.66 34.3 236.87 35.22 238.77 36.77C240.74 38.32 241.56 40.28 241.83 41.6C241.98 42.27 242.02 42.8 242.01 43.16C242.01 43.51 241.99 43.7 241.97 43.7Z" fill="#263238"/>
<path d="M262.72 40.08C262.64 40.08 262.67 39.33 262.32 38.05C261.97 36.79 261.12 34.96 259.22 33.55C257.39 32.14 254.38 31.35 251.48 32.44C250.05 32.96 248.68 33.94 247.71 35.29C246.71 36.62 246.15 38.33 246.14 40.09C246.16 41.85 246.72 43.56 247.71 44.89C248.68 46.24 250.04 47.22 251.48 47.74C254.39 48.83 257.39 48.04 259.22 46.63C261.11 45.22 261.97 43.39 262.32 42.13C262.67 40.83 262.64 40.07 262.72 40.08C262.74 40.08 262.76 40.27 262.76 40.62C262.77 40.98 262.73 41.51 262.58 42.18C262.31 43.5 261.49 45.46 259.52 47.01C257.62 48.56 254.41 49.48 251.25 48.34C249.7 47.8 248.21 46.75 247.15 45.29C246.06 43.85 245.44 41.99 245.43 40.08C245.45 38.17 246.06 36.31 247.15 34.87C248.21 33.41 249.7 32.37 251.25 31.82C254.41 30.68 257.62 31.6 259.52 33.15C261.49 34.7 262.31 36.66 262.58 37.98C262.73 38.65 262.77 39.18 262.76 39.54C262.76 39.89 262.74 40.08 262.72 40.08Z" fill="#263238"/>
<path d="M245.62 40.37C245.53 40.55 244.42 40.03 243.13 40.42C241.83 40.8 241.19 41.85 241.02 41.75C240.94 41.71 240.98 41.38 241.27 40.94C241.55 40.5 242.13 39.98 242.92 39.74C243.71 39.5 244.48 39.62 244.96 39.83C245.45 40.04 245.67 40.29 245.62 40.37Z" fill="#263238"/>
<path d="M274.48 37.83C274.48 38.03 271.69 38.14 268.25 38.1C264.81 38.05 262.03 37.85 262.03 37.66C262.03 37.46 264.82 37.35 268.26 37.39C271.69 37.44 274.48 37.64 274.48 37.83Z" fill="#263238"/>
<path d="M220.09 14.2C220.09 14.2 220.06 14.51 220.23 15.03C220.38 15.55 220.79 16.28 221.54 16.91C222.28 17.56 223.4 18.06 224.69 18.2C225.98 18.36 227.4 18.2 228.86 17.98C231.79 17.55 234.41 16.97 236.28 16.48C237.22 16.24 237.97 16.02 238.49 15.86C238.7 15.79 238.9 15.73 239.08 15.67C239.22 15.62 239.29 15.6 239.28 15.59C239.28 15.58 239.2 15.6 239.07 15.63C238.88 15.68 238.68 15.73 238.47 15.78C237.83 15.94 237.09 16.12 236.25 16.33C234.37 16.78 231.75 17.34 228.83 17.77C227.37 17.99 225.97 18.15 224.71 18C223.45 17.87 222.37 17.4 221.64 16.79C220.9 16.19 220.48 15.5 220.31 14.99C220.12 14.5 220.11 14.2 220.09 14.2Z" fill="white"/>
<path d="M218.15 16.19C218.15 16.19 218.24 17.17 218.9 18.58C219.54 19.98 220.86 21.81 222.93 23.04C224.99 24.27 227.23 24.57 228.77 24.47C230.33 24.38 231.23 24 231.23 24C231.23 23.98 230.99 24.04 230.57 24.13C230.15 24.22 229.53 24.31 228.76 24.33C227.24 24.39 225.05 24.07 223.03 22.87C221.01 21.66 219.7 19.89 219.03 18.52C218.69 17.83 218.48 17.24 218.35 16.83C218.22 16.42 218.17 16.18 218.15 16.19Z" fill="white"/>
</g>
<path d="M23.9552 87.2328L19.7424 101.187L33.6924 105.387" stroke="black" stroke-width="2" stroke-miterlimit="10" stroke-linecap="round"/>
<path d="M137.788 133.075C130.231 127.295 114.595 117.779 104.736 128.845C91.3454 143.876 111.317 157.604 123.121 131.725C134.925 105.846 94.2354 78.1788 72.9351 105.326C51.6347 132.474 88.6973 135.359 96.6635 118.403C104.519 101.678 91.5851 63.5076 25.8619 97.5053" stroke="black" stroke-miterlimit="10" stroke-linecap="round" stroke-dasharray="3 3"/>
<defs>
<clipPath id="clip0_0_1">
<rect width="250.55" height="267.05" fill="white" transform="matrix(-1 0 0 1 317.55 0)"/>
</clipPath>
</defs>
</svg>
